<svg xmlns="http://www.w3.org/2000/svg" width="290" height="90" viewBox="0 0 290 90" role="img" aria-labelledby="title"><title id="title">SAI — two rings, two little smiles</title><g fill="none" stroke-linecap="round" stroke-linejoin="round"><ellipse cx="35" cy="46" rx="22" ry="28" transform="rotate(-18 35 46)" fill="#e1ebc9" stroke="#769766" stroke-width="5"/><ellipse cx="72" cy="46" rx="22" ry="28" transform="rotate(18 72 46)" fill="#f6deca" stroke="#bc9578" stroke-width="5"/><path d="M28 52q6 7 12 0M66 52q6 7 12 0" stroke="#4c6943" stroke-width="2.7"/><path d="M156 26c-6-6-26-7-29 4-5 17 32 8 31 26-1 15-24 17-34 7M215 27v39" stroke="#354c3b" stroke-width="10"/><circle cx="194" cy="46" r="20" stroke="#354c3b" stroke-width="10"/><path d="M240 35v30" stroke="#354c3b" stroke-width="10"/></g><g fill="#4c6943"><circle cx="29" cy="43" r="2.1"/><circle cx="39" cy="43" r="2.1"/><circle cx="67" cy="43" r="2.1"/><circle cx="77" cy="43" r="2.1"/></g><circle cx="240" cy="17" r="6" fill="#9db582"/><path d="M264 34c-9-10-19 4 0 15 19-11 9-25 0-15" fill="#dacdee"/></svg>
