<svg xmlns="http://www.w3.org/2000/svg" width="290" height="90" viewBox="0 0 290 90" role="img" aria-labelledby="title"><title id="title">SAI — paired rings with a Korean ㅅ-inspired A</title><g fill="none" stroke-linecap="round" stroke-linejoin="round"><ellipse cx="35" cy="46" rx="22" ry="28" transform="rotate(-18 35 46)" fill="#e1ebc9" stroke="#769766" stroke-width="5"/><ellipse cx="72" cy="46" rx="22" ry="28" transform="rotate(18 72 46)" fill="#f6deca" stroke="#bc9578" stroke-width="5"/><path d="M28 52q6 7 12 0M66 52q6 7 12 0" stroke="#4c6943" stroke-width="2.7"/><path d="M164 28c-7-10-32-11-35 2-4 18 37 10 36 29-1 15-29 16-39 6M187 68l23-45 23 45M259 24v44" stroke="#354c3b" stroke-width="8"/></g><g fill="#4c6943"><circle cx="29" cy="43" r="2.1"/><circle cx="39" cy="43" r="2.1"/><circle cx="67" cy="43" r="2.1"/><circle cx="77" cy="43" r="2.1"/></g></svg>
